<svg width="665" height="200" viewBox="0 0 665 200" fill="none" xmlns="http://www.w3.org/2000/svg">
<path d="M219.711 89.2524H181.498V69.5342H167.897V120.917H181.498V101.27H219.711V120.917H233.313V69.5342H219.711V89.2524Z" fill="white"/>
<path d="M277.373 69.5342H266.219C256.935 69.5342 239.088 71.6211 239.088 95.2254C239.088 118.902 256.935 120.917 266.219 120.917H277.373C286.657 120.917 304.504 118.902 304.504 95.2254C304.504 71.6211 286.657 69.5342 277.373 69.5342ZM281.115 108.035H262.477C255.208 108.035 253.409 101.774 253.409 95.2254C253.409 88.7486 255.208 82.4877 262.477 82.4877H281.115C288.384 82.4877 290.183 88.7486 290.183 95.2254C290.183 101.774 288.384 108.035 281.115 108.035Z" fill="white"/>
<path d="M323.953 108.179V69.5342H310.279V120.917H366.196V108.179H323.953Z" fill="white"/>
<path d="M407.387 69.5342H396.232C386.949 69.5342 369.102 71.6211 369.102 95.2254C369.102 118.902 386.949 120.917 396.232 120.917H407.387C416.67 120.917 434.517 118.902 434.517 95.2254C434.517 71.6211 416.67 69.5342 407.387 69.5342ZM411.129 108.035H392.49C385.222 108.035 383.423 101.774 383.423 95.2254C383.423 88.7486 385.222 82.4877 392.49 82.4877H411.129C418.397 82.4877 420.196 88.7486 420.196 95.2254C420.196 101.774 418.397 108.035 411.129 108.035Z" fill="white"/>
<path d="M505.708 84.1429C505.708 73.4202 497.864 69.5342 488.797 69.5342H440.293V120.917H488.797C497.864 120.917 505.708 117.031 505.708 106.308C505.708 102.422 504.125 98.3199 500.527 95.2254C504.125 92.2029 505.708 88.1009 505.708 84.1429ZM453.894 90.5477V82.2718H487.645C490.236 82.2718 492.107 83.8551 492.107 86.3738C492.107 89.1804 490.308 90.5477 487.358 90.5477H453.894ZM487.358 99.975C490.308 99.975 492.107 101.27 492.107 104.077C492.107 106.668 490.236 108.179 487.645 108.179H453.894V99.975H487.358Z" fill="white"/>
<path d="M511.484 69.5342V120.917H567.4V108.179H525.085V101.414H567.4V89.3963H525.085V82.2718H567.4V69.5342H511.484Z" fill="white"/>
<path d="M573.188 82.4877H592.042V120.917H605.644V82.4877H624.93V69.5342H573.188V82.4877Z" fill="white"/>
<path d="M105.884 40H82.8549L40.0701 113.603L51.359 134.374L63.7768 113.603H92.4504L65.9215 160H89.0636L127.897 93.2832L116.834 72.3989L104.078 93.2832H75.63L105.884 40Z" fill="white"/>
</svg>
